<svg width="653" height="531" viewBox="0 0 653 531" fill="none" xmlns="http://www.w3.org/2000/svg">
<path opacity="0.5" d="M436.227 367.269C442.186 356.998 445.28 345.082 445.072 333.209C444.928 325.174 443.314 317.246 441.532 309.409C433.398 273.603 421.668 238.614 406.576 205.136C402.312 195.678 397.734 186.259 391.4 178.038C384.452 169.023 375.597 161.699 367.106 154.118C352.934 141.462 339.588 127.879 327.185 113.489C310.52 94.1559 295.168 73.012 273.916 58.8648C261.957 50.9046 257.054 37.4658 252.083 23.9923C250.859 20.671 249.696 17.1219 247.049 14.7665C243.045 11.2049 236.764 11.5195 231.893 13.7609C221.27 18.6475 215.663 30.9767 215.482 42.6595C215.301 54.3423 217.78 66.0821 222.205 76.898C225.1 83.9716 226.092 85.3907 229.186 92.3776C232.817 100.581 240.435 113.96 246.198 120.838C250.626 126.123 256.067 130.445 261.164 135.092C275.557 148.216 287.297 164.203 295.653 181.786C300.009 190.949 301.506 197.981 309.726 204.341C317.049 210.01 325.247 214.548 333.948 217.723" stroke="white" stroke-width="4" stroke-miterlimit="10" stroke-linecap="round" stroke-linejoin="round"/>
<path opacity="0.5" d="M307.905 204.963C301.958 219.508 301.502 236.224 306.648 251.07" stroke="white" stroke-width="4" stroke-miterlimit="10" stroke-linecap="round" stroke-linejoin="round"/>
<path opacity="0.5" d="M287.305 166.917C281.351 163.207 274.742 160.549 267.875 159.098" stroke="white" stroke-width="4" stroke-miterlimit="10" stroke-linecap="round" stroke-linejoin="round"/>
<path opacity="0.5" d="M25.9957 154.279C14.4041 158.058 6.48639 169.491 4.17601 181.451C1.86564 193.414 4.357 205.81 8.22415 217.364C10.4775 224.096 13.4845 231.043 19.2976 235.122C28.2366 241.393 41.7122 238.26 48.5813 229.775C55.4505 221.287 56.2487 208.978 52.5625 198.702C48.8763 188.426 41.2883 179.97 32.8053 173.092" stroke="white" stroke-width="4" stroke-miterlimit="10" stroke-linecap="round" stroke-linejoin="round"/>
<path opacity="0.5" d="M16.812 234.76C12.7491 248.244 16.6856 263.292 24.9008 274.735C33.116 286.177 45.1711 294.375 57.903 300.411C66.019 304.258 75.7315 307.282 83.7385 303.215C93.9617 298.021 95.93 283.867 92.7519 272.857C88.0568 256.595 74.6953 243.107 58.4632 238.25" stroke="white" stroke-width="4" stroke-miterlimit="10" stroke-linecap="round" stroke-linejoin="round"/>
<path opacity="0.5" d="M52.4434 225.574C59.5133 229.264 65.4256 235.127 69.1762 242.161" stroke="white" stroke-width="4" stroke-miterlimit="10" stroke-linecap="round" stroke-linejoin="round"/>
<path opacity="0.5" d="M48.002 297.065C45.3049 313.107 48.2796 330.043 56.2841 344.21C64.2886 358.374 77.2634 369.671 92.4048 375.652C97.9303 377.837 104.148 379.323 109.765 377.388C117.073 374.874 121.431 367.157 122.799 359.558C126.175 340.809 113.28 320.562 94.8515 315.673C95.9075 315.499 96.9611 315.321 98.0171 315.148" stroke="white" stroke-width="4" stroke-miterlimit="10" stroke-linecap="round" stroke-linejoin="round"/>
<path opacity="0.5" d="M88.6055 304.069C94.7185 307.044 100.118 311.47 104.228 316.882" stroke="white" stroke-width="4" stroke-miterlimit="10" stroke-linecap="round" stroke-linejoin="round"/>
<path opacity="0.5" d="M99.1683 378.008C97.1926 389.134 95.2144 400.536 97.1703 411.667C99.1237 422.795 105.839 433.787 116.466 437.653C122.423 439.82 128.955 439.582 135.279 439.144C139.446 438.859 143.861 438.398 147.173 435.857C151.256 432.719 152.637 427.164 152.748 422.02C152.969 411.996 149.258 401.941 142.58 394.456C135.901 386.974 126.323 382.144 116.333 381.218C117.146 381.124 123.323 376.148 124.134 376.054" stroke="white" stroke-width="4" stroke-miterlimit="10" stroke-linecap="round" stroke-linejoin="round"/>
<path opacity="0.5" d="M119.468 396.633C118.757 404.885 118.067 413.321 120.108 421.348C122.148 429.375 127.468 437.058 135.336 439.669" stroke="white" stroke-width="4" stroke-miterlimit="10" stroke-linecap="round" stroke-linejoin="round"/>
<path opacity="0.5" d="M118.094 397.029C113.399 396.578 109.157 400.588 107.908 405.13C106.658 409.678 107.747 414.53 109.281 418.99C111.641 425.851 115.062 432.345 119.383 438.173" stroke="white" stroke-width="4" stroke-miterlimit="10" stroke-linecap="round" stroke-linejoin="round"/>
<path opacity="0.5" d="M91.0255 370.005C84.3274 366.857 77.7607 362.917 73.2937 357.019C68.8266 351.122 66.8187 342.924 69.8108 336.158C73.5168 327.777 88.6953 325.867 93.2417 334.575C97.7807 343.276 92.5922 360.985 91.0255 370.005Z" stroke="white" stroke-width="4" stroke-miterlimit="10" stroke-linecap="round" stroke-linejoin="round"/>
<path opacity="0.5" d="M64.3866 295.76C64.1982 296.411 63.9453 297.13 63.3405 297.442C62.8249 297.707 62.2027 297.595 61.635 297.462C49.9939 294.702 40.3309 284.895 37.7553 273.219C34.5922 258.881 48.9899 249.252 61.3673 257.861C71.5656 264.954 67.2374 285.947 64.3866 295.76Z" stroke="white" stroke-width="4" stroke-miterlimit="10" stroke-linecap="round" stroke-linejoin="round"/>
<path opacity="0.5" d="M21.6155 195.004C13.9705 204.732 11.4444 218.263 15.0686 230.089" stroke="white" stroke-width="4" stroke-miterlimit="10" stroke-linecap="round" stroke-linejoin="round"/>
<path opacity="0.5" d="M21.9858 193.511C19.1896 191.606 15.9546 189.823 12.6055 190.318C8.17811 190.974 5.19592 195.556 4.834 200.012C4.47207 204.468 6.1082 208.817 7.71207 212.99" stroke="white" stroke-width="4" stroke-miterlimit="10" stroke-linecap="round" stroke-linejoin="round"/>
<path opacity="0.5" d="M421.269 419.959C421.046 439.045 416.494 461.088 399.509 469.818C386.078 476.721 369.873 472.62 355.376 468.382C327.751 460.308 300.125 452.236 272.5 444.167" stroke="white" stroke-width="4" stroke-miterlimit="10" stroke-linecap="round" stroke-linejoin="round"/>
<path opacity="0.5" d="M650.081 333.471C576.307 324.122 503.64 306.101 434.051 279.902" stroke="url(#paint0_linear)" stroke-width="4" stroke-miterlimit="10" stroke-linecap="round" stroke-linejoin="round"/>
<path opacity="0.5" d="M619.295 528.078C582.676 516.118 546.057 504.158 509.438 492.195C474.423 480.76 438.57 469.191 401.74 470.056" stroke="url(#paint1_linear)" stroke-width="4" stroke-miterlimit="10" stroke-linecap="round" stroke-linejoin="round"/>
<path opacity="0.5" d="M457.11 458.685C455.957 464.387 453.419 469.806 449.777 474.346" stroke="white" stroke-width="4" stroke-miterlimit="10" stroke-linecap="round" stroke-linejoin="round"/>
<path opacity="0.5" d="M453.689 288.065C459.245 299.143 463.456 310.891 466.211 322.972" stroke="white" stroke-width="4" stroke-miterlimit="10" stroke-linecap="round" stroke-linejoin="round"/>
<path d="M151.422 432.429L165.371 463.356C170.725 475.227 184.699 480.515 196.581 475.168L350.568 405.836C362.452 400.489 367.744 386.525 362.39 374.654L250.642 126.893" stroke="white" stroke-width="4" stroke-miterlimit="10" stroke-linecap="round" stroke-linejoin="round"/>
<path d="M122.197 367.643L129.257 383.296" stroke="white" stroke-width="4" stroke-miterlimit="10" stroke-linecap="round" stroke-linejoin="round"/>
<path d="M90.916 298.289L98.9577 316.117" stroke="white" stroke-width="4" stroke-miterlimit="10" stroke-linecap="round" stroke-linejoin="round"/>
<path d="M54.5957 217.753L60.099 229.953" stroke="white" stroke-width="4" stroke-miterlimit="10" stroke-linecap="round" stroke-linejoin="round"/>
<path d="M214.297 46.315L200.718 16.2102C195.363 4.33919 181.389 -0.948595 169.508 4.40117L15.5183 73.7301C3.6367 79.0798 -1.65585 93.0412 3.69866 104.912L34.792 173.85" stroke="white" stroke-width="4" stroke-miterlimit="10" stroke-linecap="round" stroke-linejoin="round"/>
<path d="M200.988 45.3102L25.2578 124.422L162.367 428.443L338.098 349.331L200.988 45.3102Z" stroke="white" stroke-width="4" stroke-miterlimit="10" stroke-linecap="round" stroke-linejoin="round"/>
<path d="M131.084 46.5355L72.566 72.8806C71.1084 73.5369 70.454 75.2632 71.1109 76.7195C71.7678 78.1758 73.4957 78.8297 74.9533 78.1734L133.471 51.8283C134.926 51.1719 135.583 49.4457 134.926 47.9893C134.267 46.533 132.539 45.8791 131.084 46.5355Z" stroke="white" stroke-width="4" stroke-miterlimit="10" stroke-linecap="round" stroke-linejoin="round"/>
<path d="M278.054 396.769L237.811 414.886C233.222 416.952 231.16 422.393 233.227 426.978C235.295 431.565 240.741 433.626 245.329 431.56L285.573 413.44C290.161 411.374 292.224 405.936 290.156 401.351C288.089 396.764 282.642 394.704 278.054 396.769Z" stroke="white" stroke-width="4" stroke-miterlimit="10" stroke-linecap="round" stroke-linejoin="round"/>
<defs>
<linearGradient id="paint0_linear" x1="453" y1="292" x2="501.528" y2="231.972" gradientUnits="userSpaceOnUse">
<stop stop-color="white"/>
<stop offset="1" stop-color="white" stop-opacity="0"/>
</linearGradient>
<linearGradient id="paint1_linear" x1="420.823" y1="483.124" x2="474.105" y2="421.893" gradientUnits="userSpaceOnUse">
<stop stop-color="white"/>
<stop offset="1" stop-color="white" stop-opacity="0"/>
</linearGradient>
</defs>
</svg>
