<svg width="72" height="72" viewBox="0 0 72 72" fill="none" xmlns="http://www.w3.org/2000/svg">
<path d="M61.4501 10.5501C47.3846 -3.51531 24.6173 -3.51742 10.5498 10.5501C-3.51556 24.6155 -3.51767 47.3829 10.5498 61.4504C24.6152 75.5158 47.3825 75.5179 61.4501 61.4504C75.5157 47.3847 75.5175 24.6176 61.4501 10.5501ZM35.9999 69.7426C17.3943 69.7426 2.25749 54.6057 2.25749 36.0002C2.25749 17.3946 17.3943 2.25773 35.9999 2.25773C54.6055 2.25773 69.7423 17.3946 69.7423 36.0002C69.7423 54.6057 54.6055 69.7426 35.9999 69.7426Z" fill="#266BDF"/>
<path d="M36.0012 6.75659C19.8764 6.75659 6.75781 19.8752 6.75781 36C6.75781 52.1248 19.8764 65.2435 36.0012 65.2435C52.126 65.2435 65.2447 52.1248 65.2447 36C65.2447 19.8752 52.1262 6.75659 36.0012 6.75659ZM36.0012 62.994C21.1168 62.994 9.00731 50.8845 9.00731 36C9.00731 21.1155 21.1168 9.00609 36.0012 9.00609C50.8857 9.00609 62.9952 21.1155 62.9952 36C62.9952 50.8845 50.8859 62.994 36.0012 62.994Z" fill="#266BDF"/>
<path d="M37.124 32.8193V21.3784C37.124 20.7573 36.6204 20.2537 35.9993 20.2537C35.3782 20.2537 34.8745 20.7573 34.8745 21.3784V32.8193C32.9736 33.4936 32.0968 35.6647 32.9547 37.454C32.1545 38.2542 28.1666 42.2422 27.3307 43.078C26.62 43.7886 27.1331 44.9981 28.1261 44.9981C28.4139 44.9981 28.7018 44.8883 28.9214 44.6687L34.5451 39.0449C34.5636 39.0265 35.077 39.3744 35.9993 39.3744C37.8598 39.3744 39.3735 37.8607 39.3735 36.0001C39.3735 34.5337 38.4332 33.2836 37.124 32.8193ZM35.9993 37.1247C35.3791 37.1247 34.8745 36.6201 34.8745 36C34.8745 35.3798 35.3791 34.8752 35.9993 34.8752C36.6194 34.8752 37.124 35.3798 37.124 36C37.124 36.6203 36.6196 37.1247 35.9993 37.1247Z" fill="#266BDF"/>
<path d="M35.9998 15.7546C36.6209 15.7546 37.1245 15.251 37.1245 14.6299V12.3804C37.1245 11.7592 36.6209 11.2556 35.9998 11.2556C35.3786 11.2556 34.875 11.7592 34.875 12.3804V14.6299C34.875 15.2511 35.3786 15.7546 35.9998 15.7546Z" fill="#266BDF"/>
<path d="M51.9063 18.5032L50.3157 20.0938C49.8765 20.533 49.8765 21.2451 50.3157 21.6843C50.7552 22.1237 51.4671 22.1235 51.9064 21.6843L53.4969 20.0938C53.9362 19.6546 53.9362 18.9425 53.4969 18.5032C53.0577 18.064 52.3456 18.064 51.9063 18.5032Z" fill="#266BDF"/>
<path d="M59.6203 34.8755H57.3708C56.7497 34.8755 56.2461 35.3791 56.2461 36.0002C56.2461 36.6214 56.7497 37.125 57.3708 37.125H59.6203C60.2415 37.125 60.7451 36.6214 60.7451 36.0002C60.7451 35.3791 60.2415 34.8755 59.6203 34.8755Z" fill="#266BDF"/>
<path d="M51.9064 50.3157C51.4671 49.8765 50.7551 49.8765 50.3157 50.3157C49.8765 50.755 49.8765 51.4671 50.3157 51.9063L51.9063 53.4968C52.126 53.7164 52.4137 53.8262 52.7016 53.8262C53.6942 53.8262 54.2081 52.6173 53.4969 51.9061L51.9064 50.3157Z" fill="#266BDF"/>
<path d="M35.9998 56.2454C35.3786 56.2454 34.875 56.749 34.875 57.3701V59.6196C34.875 60.2407 35.3786 60.7443 35.9998 60.7443C36.6209 60.7443 37.1245 60.2407 37.1245 59.6196V57.3701C37.1245 56.749 36.6209 56.2454 35.9998 56.2454Z" fill="#266BDF"/>
<path d="M20.0939 50.3157L18.5033 51.9063C18.064 52.3455 18.064 53.0576 18.5033 53.4968C18.9427 53.9362 19.6547 53.936 20.0939 53.4968L21.6844 51.9063C22.1238 51.4671 22.1238 50.755 21.6844 50.3157C21.2453 49.8765 20.5331 49.8765 20.0939 50.3157Z" fill="#266BDF"/>
<path d="M14.6301 34.8755H12.3806C11.7595 34.8755 11.2559 35.3791 11.2559 36.0002C11.2559 36.6214 11.7595 37.125 12.3806 37.125H14.6301C15.2512 37.125 15.7549 36.6214 15.7549 36.0002C15.7549 35.3791 15.2514 34.8755 14.6301 34.8755Z" fill="#266BDF"/>
<path d="M20.0939 18.5032C19.6547 18.064 18.9426 18.064 18.5033 18.5032C18.064 18.9425 18.064 19.6546 18.5033 20.0938L20.0939 21.6843C20.3135 21.9039 20.6013 22.0137 20.8892 22.0137C21.8821 22.0137 22.3952 20.8043 21.6845 20.0936L20.0939 18.5032Z" fill="#266BDF"/>
</svg>
