<svg width="72" height="52" viewBox="0 0 72 52" fill="none" xmlns="http://www.w3.org/2000/svg">
<path d="M70.9453 40.5146H67.6322V6.65771C67.6322 3.64903 65.1846 1.20146 62.1759 1.20146H55.7705C55.188 1.20146 54.7158 1.67353 54.7158 2.25614C54.7158 2.83875 55.188 3.31083 55.7705 3.31083H62.1759C64.0215 3.31083 65.5228 4.81228 65.5228 6.65771V40.5146H6.47719V6.65771C6.47719 4.81228 7.9785 3.31083 9.82406 3.31083H36.4328C36.4151 3.47016 36.4282 5.04305 36.3527 5.56927H9.79172C9.20925 5.56927 8.73703 6.04135 8.73703 6.62396V37.2015C8.73703 37.7841 9.20925 38.2561 9.79172 38.2561H16.2295C16.812 38.2561 17.2842 37.7841 17.2842 37.2015C17.2842 36.6188 16.812 36.1468 16.2295 36.1468H10.8464V7.67864H35.6238C34.9131 8.85722 33.7764 9.70716 32.379 10.75C31.6799 11.2718 30.9274 11.8338 30.1721 12.4921C29.9852 12.1968 29.6564 12.0001 29.2811 12.0001H25.886V10.8555C25.886 10.2729 25.4137 9.80082 24.8313 9.80082H18.5273C17.9449 9.80082 17.4727 10.2729 17.4727 10.8555V30.6488C17.4727 31.2314 17.9449 31.7034 18.5273 31.7034H29.2809C29.8634 31.7034 30.3356 31.2314 30.3356 30.6488V29.9896C31.3162 30.1194 32.0722 30.3683 32.7959 30.9233C33.4522 31.4263 34.2623 31.7034 35.0774 31.7034H48.9075C51.3255 31.7034 52.9103 28.6995 51.6611 26.7194C53.0422 25.7519 53.453 23.6598 52.5007 22.2429C53.9138 20.8766 54.1589 19.4132 53.2361 17.8527C54.0202 17.2582 54.5275 16.3168 54.5275 15.2593C54.5275 13.4655 53.0681 12.0061 51.2743 12.0061H42.6579C43.0453 10.607 43.2103 9.17658 43.156 7.67879H61.1536V36.1469H20.8252C20.2427 36.1469 19.7705 36.619 19.7705 37.2016C19.7705 37.7842 20.2427 38.2563 20.8252 38.2563H62.2083C62.7907 38.2563 63.263 37.7842 63.263 37.2016V6.6241C63.263 6.04149 62.7907 5.56941 62.2083 5.56941H42.9405C42.8205 4.83619 42.6537 4.08497 42.4372 3.31097H51.1748C51.7573 3.31097 52.2295 2.83889 52.2295 2.25628C52.2295 1.67367 51.7573 1.2016 51.1748 1.2016H41.1647C39.9988 0.453472 38.8335 0.453472 37.6691 1.2016H9.82406C6.81539 1.2016 4.36781 3.64918 4.36781 6.65785V40.5147H1.05469C0.472219 40.5147 0 40.9868 0 41.5694V45.9035C0 48.9121 2.44758 51.3597 5.45625 51.3597H33.8555C34.4379 51.3597 34.9102 50.8876 34.9102 50.305C34.9102 49.7224 34.4379 49.2503 33.8555 49.2503H5.45625C3.61083 49.2503 2.10938 47.7489 2.10938 45.9035V42.6241H26.209V45.9374C26.209 46.52 26.6812 46.9921 27.2637 46.9921H44.7362C45.3187 46.9921 45.7909 46.52 45.7909 45.9374V42.6241H69.8906V45.9035C69.8906 47.7489 68.3892 49.2503 66.5438 49.2503H38.4511C37.8686 49.2503 37.3964 49.7224 37.3964 50.305C37.3964 50.8876 37.8686 51.3597 38.4511 51.3597H66.5438C69.5524 51.3597 72 48.9121 72 45.9035V41.5694C72 40.9867 71.5278 40.5146 70.9453 40.5146ZM19.582 11.9102H23.7765V29.5941H19.582V11.9102ZM28.2262 29.5941H25.8858V14.1093H28.2262V29.5941ZM40.2576 3.36863C41.3321 6.89086 41.318 9.84863 40.2133 12.6769C40.0344 13.5021 40.3619 13.9816 41.1957 14.1153H51.2743C51.905 14.1153 52.4181 14.6283 52.4181 15.2592C52.4181 15.89 51.905 16.403 51.2743 16.403H48.5392C47.9568 16.403 47.4846 16.8751 47.4846 17.4577C47.4846 18.0403 47.9568 18.5124 48.5392 18.5124H50.5298C51.1605 18.5124 51.6736 19.0254 51.6736 19.6562C51.6736 20.2871 51.1605 20.8001 50.5298 20.8001H48.5392C47.9568 20.8001 47.4846 21.2722 47.4846 21.8548C47.4846 22.4374 47.9568 22.9095 48.5392 22.9095H49.799C50.4297 22.9095 50.9428 23.4225 50.9428 24.0533C50.9428 24.6841 50.4297 25.1971 49.799 25.1971H47.8083C47.2258 25.1971 46.7536 25.6692 46.7536 26.2518C46.7536 26.8344 47.2258 27.3065 47.8083 27.3065H48.9075C49.5382 27.3065 50.0514 27.8195 50.0514 28.4504C50.0514 29.0812 49.5382 29.5942 48.9075 29.5942H35.0774C34.7238 29.5942 34.3693 29.4717 34.0795 29.2495C32.8607 28.3149 31.5817 27.9999 30.3356 27.8635V15.2613C31.3962 14.1158 32.5358 13.2654 33.6406 12.4408C36.2836 10.4684 38.78 8.60536 38.5244 3.68391C38.5525 3.11874 38.8479 2.80739 39.4107 2.74988C39.7981 2.74974 40.1463 3.00427 40.2576 3.36863ZM43.6816 44.8824H28.3184V42.6238H43.6815V44.8824H43.6816Z" fill="#266BDF"/>
</svg>
