<svg width="54" height="72" viewBox="0 0 54 72" fill="none" xmlns="http://www.w3.org/2000/svg">
<path d="M54 0H7.3125V7.3125H0V72H46.6875V64.6875H54V0ZM1.6875 70.3125V9H33.75V20.25H45V70.3125H1.6875ZM35.4375 10.1932L43.8068 18.5625H35.4375V10.1932ZM52.3125 63H46.6875V19.0568L34.9432 7.3125H9V1.6875H52.3125V63Z" fill="#266BDF"/>
<path d="M7.59375 16.3125H21.0938V18H7.59375V16.3125Z" fill="#266BDF"/>
<path d="M7.59375 20.8125H16.5938V22.5H7.59375V20.8125Z" fill="#266BDF"/>
<path d="M7.59375 27.5625H39.0938V29.25H7.59375V27.5625Z" fill="#266BDF"/>
<path d="M7.59375 32.0625H39.0938V33.75H7.59375V32.0625Z" fill="#266BDF"/>
<path d="M7.59375 41.0625H39.0938V42.75H7.59375V41.0625Z" fill="#266BDF"/>
<path d="M7.59375 45.5625H30.0938V47.25H7.59375V45.5625Z" fill="#266BDF"/>
<path d="M7.59375 36.5625H39.0938V38.25H7.59375V36.5625Z" fill="#266BDF"/>
<path d="M27.8438 52.3125H39.0938V54H27.8438V52.3125Z" fill="#266BDF"/>
</svg>
