<svg width="70" height="70" viewBox="0 0 70 70" fill="none" xmlns="http://www.w3.org/2000/svg">
<path d="M64.25 0.125H5.75C2.64838 0.125 0.125 2.64838 0.125 5.75V50.75C0.125 53.8516 2.64838 56.375 5.75 56.375H40.625V57.4989C40.625 60.8041 41.912 63.9125 44.2497 66.2503C46.5864 68.5869 49.6948 69.875 53 69.875C59.8231 69.875 65.375 64.3231 65.375 57.5V56.2614C67.9389 55.7382 69.875 53.4669 69.875 50.75V5.75C69.875 2.64838 67.3516 0.125 64.25 0.125ZM63.125 57.5C63.125 63.0822 58.5822 67.625 53 67.625C50.2955 67.625 47.7519 66.5709 45.8394 64.6584C43.9269 62.7459 42.8739 60.2034 42.8739 57.4977V54.593C42.8739 53.3769 42.587 52.1596 42.0425 51.0718L40.6981 48.383C40.6509 48.2863 40.625 48.1782 40.625 48.0714C40.625 47.6877 40.9366 47.375 41.3203 47.375C43.4184 47.375 45.125 49.0827 45.125 51.1797V53V54.125H47.375V53V51.1797V35C47.375 34.3801 47.8801 33.875 48.5 33.875C49.1199 33.875 49.625 34.3801 49.625 35V45.125V54.125H51.875V45.125C51.875 44.5051 52.3801 44 53 44C53.6199 44 54.125 44.5051 54.125 45.125V46.25V54.125H56.375V46.25C56.375 45.6301 56.8801 45.125 57.5 45.125C58.1199 45.125 58.625 45.6301 58.625 46.25V47.375V53V54.125H60.875V53V47.375C60.875 46.7551 61.3801 46.25 62 46.25C62.621 46.25 63.125 46.7551 63.125 47.375V57.5ZM67.625 50.75C67.625 52.2147 66.6811 53.4523 65.375 53.918V47.375C65.375 45.5154 63.8607 44 62 44C61.3959 44 60.8368 44.1721 60.3451 44.4511C59.7466 43.5073 58.6981 42.875 57.5 42.875C56.8959 42.875 56.3368 43.0471 55.8451 43.3261C55.2466 42.3823 54.1981 41.75 53 41.75C52.604 41.75 52.2282 41.831 51.875 41.957V35C51.875 33.1393 50.3607 31.625 48.5 31.625C46.6393 31.625 45.125 33.1393 45.125 35V46.5088C44.0821 45.6582 42.7692 45.125 41.3203 45.125C39.6958 45.125 38.375 46.4469 38.375 48.0714C38.375 48.5247 38.483 48.9804 38.6855 49.3888L40.031 52.0786C40.3494 52.7165 40.5372 53.4162 40.5969 54.1261H5.75C3.88925 54.1261 2.375 52.6119 2.375 50.7511V5.75C2.375 3.88925 3.88925 2.375 5.75 2.375H64.25C66.1107 2.375 67.625 3.88925 67.625 5.75V50.75Z" fill="#266BDF"/>
<path d="M40.625 4.625H6.875C5.63412 4.625 4.625 5.63412 4.625 6.875V29.375C4.625 30.6159 5.63412 31.625 6.875 31.625H40.625C41.8659 31.625 42.875 30.6159 42.875 29.375V6.875C42.875 5.63412 41.8659 4.625 40.625 4.625ZM40.625 6.875L40.6261 22.625H39.5C38.8801 22.625 38.375 22.1199 38.375 21.5V12.5C38.375 10.6392 36.8607 9.125 35 9.125C33.1392 9.125 31.625 10.6392 31.625 12.5V21.5C31.625 22.1199 31.1199 22.625 30.5 22.625C29.8801 22.625 29.375 22.1199 29.375 21.5V15.875C29.375 14.0142 27.8608 12.5 26 12.5C24.1392 12.5 22.625 14.0142 22.625 15.875V19.25C22.625 19.8699 22.1199 20.375 21.5 20.375C20.8801 20.375 20.375 19.8699 20.375 19.25V12.5C20.375 10.6392 18.8608 9.125 17 9.125C15.1392 9.125 13.625 10.6392 13.625 12.5V23.75C13.625 24.3699 13.1199 24.875 12.5 24.875C11.8801 24.875 11.375 24.3699 11.375 23.75V22.625C11.375 20.7642 9.86075 19.25 8 19.25H6.875V6.875H40.625ZM6.875 29.375V21.5H8C8.61987 21.5 9.125 22.0051 9.125 22.625V23.75C9.125 25.6108 10.6392 27.125 12.5 27.125C14.3608 27.125 15.875 25.6108 15.875 23.75V12.5C15.875 11.8801 16.3801 11.375 17 11.375C17.6199 11.375 18.125 11.8801 18.125 12.5V19.25C18.125 21.1108 19.6392 22.625 21.5 22.625C23.3608 22.625 24.875 21.1108 24.875 19.25V15.875C24.875 15.2551 25.3801 14.75 26 14.75C26.6199 14.75 27.125 15.2551 27.125 15.875V21.5C27.125 23.3608 28.6392 24.875 30.5 24.875C32.3608 24.875 33.875 23.3608 33.875 21.5V12.5C33.875 11.8801 34.3801 11.375 35 11.375C35.6199 11.375 36.125 11.8801 36.125 12.5V21.5C36.125 23.3608 37.6393 24.875 39.5 24.875H40.6261V29.375H6.875Z" fill="#266BDF"/>
<path d="M9.125 42.875C6.64325 42.875 4.625 44.8932 4.625 47.375C4.625 49.8568 6.64325 51.875 9.125 51.875C11.6068 51.875 13.625 49.8568 13.625 47.375C13.625 44.8932 11.6068 42.875 9.125 42.875ZM9.125 49.625C7.88412 49.625 6.875 48.6159 6.875 47.375C6.875 46.1341 7.88412 45.125 9.125 45.125C10.3659 45.125 11.375 46.1341 11.375 47.375C11.375 48.6159 10.3659 49.625 9.125 49.625Z" fill="#266BDF"/>
<path d="M20.375 42.875C17.8932 42.875 15.875 44.8932 15.875 47.375C15.875 49.8568 17.8932 51.875 20.375 51.875C22.8568 51.875 24.875 49.8568 24.875 47.375C24.875 44.8932 22.8568 42.875 20.375 42.875ZM20.375 49.625C19.1341 49.625 18.125 48.6159 18.125 47.375C18.125 46.1341 19.1341 45.125 20.375 45.125C21.6159 45.125 22.625 46.1341 22.625 47.375C22.625 48.6159 21.6159 49.625 20.375 49.625Z" fill="#266BDF"/>
<path d="M31.625 42.875C29.1432 42.875 27.125 44.8932 27.125 47.375C27.125 49.8568 29.1432 51.875 31.625 51.875C34.1068 51.875 36.125 49.8568 36.125 47.375C36.125 44.8932 34.1068 42.875 31.625 42.875ZM31.625 49.625C30.3841 49.625 29.375 48.6159 29.375 47.375C29.375 46.1341 30.3841 45.125 31.625 45.125C32.8659 45.125 33.875 46.1341 33.875 47.375C33.875 48.6159 32.8659 49.625 31.625 49.625Z" fill="#266BDF"/>
<path d="M11.375 37.25C11.375 35.3892 9.86075 33.875 8 33.875C6.13925 33.875 4.625 35.3892 4.625 37.25C4.625 39.1108 6.13925 40.625 8 40.625C9.86075 40.625 11.375 39.1108 11.375 37.25ZM6.875 37.25C6.875 36.6301 7.38013 36.125 8 36.125C8.61987 36.125 9.125 36.6301 9.125 37.25C9.125 37.8699 8.61987 38.375 8 38.375C7.38013 38.375 6.875 37.8699 6.875 37.25Z" fill="#266BDF"/>
<path d="M20.375 37.25C20.375 35.3892 18.8608 33.875 17 33.875C15.1392 33.875 13.625 35.3892 13.625 37.25C13.625 39.1108 15.1392 40.625 17 40.625C18.8608 40.625 20.375 39.1108 20.375 37.25ZM15.875 37.25C15.875 36.6301 16.3801 36.125 17 36.125C17.6199 36.125 18.125 36.6301 18.125 37.25C18.125 37.8699 17.6199 38.375 17 38.375C16.3801 38.375 15.875 37.8699 15.875 37.25Z" fill="#266BDF"/>
<path d="M29.375 37.25C29.375 35.3892 27.8608 33.875 26 33.875C24.1392 33.875 22.625 35.3892 22.625 37.25C22.625 39.1108 24.1392 40.625 26 40.625C27.8608 40.625 29.375 39.1108 29.375 37.25ZM26 38.375C25.3801 38.375 24.875 37.8699 24.875 37.25C24.875 36.6301 25.3801 36.125 26 36.125C26.6199 36.125 27.125 36.6301 27.125 37.25C27.125 37.8699 26.6199 38.375 26 38.375Z" fill="#266BDF"/>
<path d="M35 33.875C33.1392 33.875 31.625 35.3892 31.625 37.25C31.625 39.1108 33.1392 40.625 35 40.625C36.8608 40.625 38.375 39.1108 38.375 37.25C38.375 35.3892 36.8608 33.875 35 33.875ZM35 38.375C34.3801 38.375 33.875 37.8699 33.875 37.25C33.875 36.6301 34.3801 36.125 35 36.125C35.6199 36.125 36.125 36.6301 36.125 37.25C36.125 37.8699 35.6199 38.375 35 38.375Z" fill="#266BDF"/>
<path d="M49.625 20.582V4.625H47.375V20.582C46.0689 21.0478 45.125 22.2852 45.125 23.75C45.125 25.2148 46.0689 26.4522 47.375 26.918V29.375H49.625V26.918C50.9311 26.4522 51.875 25.2148 51.875 23.75C51.875 22.2852 50.9311 21.0478 49.625 20.582ZM48.5 24.875C47.8801 24.875 47.375 24.3699 47.375 23.75C47.375 23.1301 47.8801 22.625 48.5 22.625C49.1199 22.625 49.625 23.1301 49.625 23.75C49.625 24.3699 49.1199 24.875 48.5 24.875Z" fill="#266BDF"/>
<path d="M56.375 9.332V4.625H54.125V9.332C52.8189 9.79775 51.875 11.0352 51.875 12.5C51.875 13.9648 52.8189 15.2022 54.125 15.668V29.375H56.375V15.668C57.6811 15.2022 58.625 13.9648 58.625 12.5C58.625 11.0352 57.6811 9.79775 56.375 9.332ZM55.25 13.625C54.6301 13.625 54.125 13.1199 54.125 12.5C54.125 11.8801 54.6301 11.375 55.25 11.375C55.8699 11.375 56.375 11.8801 56.375 12.5C56.375 13.1199 55.8699 13.625 55.25 13.625Z" fill="#266BDF"/>
<path d="M63.125 18.332V4.625H60.875V18.332C59.5689 18.7978 58.625 20.0352 58.625 21.5C58.625 22.9648 59.5689 24.2022 60.875 24.668V29.375H63.125V24.668C64.4311 24.2022 65.375 22.9648 65.375 21.5C65.375 20.0352 64.4311 18.7978 63.125 18.332ZM62 22.625C61.3801 22.625 60.875 22.1199 60.875 21.5C60.875 20.8801 61.3801 20.375 62 20.375C62.6199 20.375 63.125 20.8801 63.125 21.5C63.125 22.1199 62.6199 22.625 62 22.625Z" fill="#266BDF"/>
</svg>
