<svg width="582" height="542" viewBox="0 0 582 542" fill="none" xmlns="http://www.w3.org/2000/svg">
<path d="M496.262 83.1224C496.262 152.355 423.528 253.093 414.583 253.093C405.638 253.093 332.904 152.355 332.904 83.1224C332.904 38.3195 369.473 2 414.583 2C459.693 2 496.262 38.3195 496.262 83.1224Z" stroke="white" stroke-width="4" stroke-miterlimit="10" stroke-linecap="round" stroke-linejoin="round"/>
<path d="M414.584 135.093C442.256 135.093 464.689 112.671 464.689 85.0116C464.689 57.3524 442.256 34.9302 414.584 34.9302C386.911 34.9302 364.479 57.3524 364.479 85.0116C364.479 112.671 386.911 135.093 414.584 135.093Z" stroke="white" stroke-width="4" stroke-miterlimit="10" stroke-linecap="round" stroke-linejoin="round"/>
<path d="M400.17 277.791C379.483 274.587 364.479 265.067 364.479 253.82C364.479 243.819 376.344 235.182 393.519 231.14" stroke="white" stroke-width="4" stroke-miterlimit="10" stroke-linecap="round" stroke-linejoin="round"/>
<path d="M437.234 231.14C453.472 235.302 464.689 244.195 464.689 254.493C464.689 255.885 464.485 257.25 464.09 258.581" stroke="white" stroke-width="4" stroke-miterlimit="10" stroke-linecap="round" stroke-linejoin="round"/>
<path d="M348.005 34.9302H318.163C296.737 34.9302 279.367 52.4397 279.367 74.0389V500.752C279.367 522.351 296.737 539.86 318.163 539.86H424.879" stroke="white" stroke-width="4" stroke-miterlimit="10" stroke-linecap="round" stroke-linejoin="round"/>
<path d="M538.818 335.419V74.0463C538.818 52.4431 520.664 34.9302 498.269 34.9302H481.162" stroke="white" stroke-width="4" stroke-miterlimit="10" stroke-linecap="round" stroke-linejoin="round"/>
<path d="M334.277 69.2325H279.367" stroke="white" stroke-width="4" stroke-miterlimit="10" stroke-linecap="round" stroke-linejoin="round"/>
<path d="M537.444 69.2325H494.889" stroke="white" stroke-width="4" stroke-miterlimit="10" stroke-linecap="round" stroke-linejoin="round"/>
<path d="M279.367 502.814H423.506" stroke="white" stroke-width="4" stroke-miterlimit="10" stroke-linecap="round" stroke-linejoin="round"/>
<g opacity="0.5">
<path d="M279.369 133.721H241.684C233.676 133.721 226.497 138.821 223.634 146.543L214.13 172.183C211.685 178.78 216.403 185.86 223.244 185.86H279.366" stroke="white" stroke-width="4" stroke-miterlimit="10" stroke-linecap="round" stroke-linejoin="round"/>
<path d="M279.365 185.86H217.128C189.706 185.86 163.961 198.909 147.961 220.917L80.7659 313.338C67.9783 330.926 61.0996 352.038 61.0996 373.695V462.005C61.0996 474.692 71.5065 484.977 84.3444 484.977H191.876C196.204 484.977 200.385 483.426 203.644 480.611L212.904 472.615C216.163 469.801 220.344 468.25 224.672 468.25H279.367" stroke="white" stroke-width="4" stroke-miterlimit="10" stroke-linecap="round" stroke-linejoin="round"/>
<path d="M142.437 539.86H95.075C88.4415 539.86 83.0645 534.53 83.0645 527.955V484.977H154.447V527.955C154.447 534.53 149.07 539.86 142.437 539.86Z" stroke="white" stroke-width="4" stroke-miterlimit="10" stroke-linecap="round" stroke-linejoin="round"/>
<path d="M279.368 316.877C251.337 316.877 223.305 318.107 195.352 320.569L171.297 322.688C142.94 325.186 114.869 315.354 94.052 295.633L94.0469 295.628" stroke="white" stroke-width="4" stroke-miterlimit="10" stroke-linecap="round" stroke-linejoin="round"/>
<path d="M81.6918 310.721H25.5431C12.5806 310.721 2.07227 300.584 2.07227 288.081C2.07227 275.577 12.5806 265.442 25.5431 265.442H49.2152C57.8787 265.442 64.9024 272.216 64.9024 280.573V310.721" stroke="white" stroke-width="4" stroke-miterlimit="10" stroke-linecap="round" stroke-linejoin="round"/>
<path d="M61.0996 432.837H195.629" stroke="white" stroke-width="4" stroke-miterlimit="10" stroke-linecap="round" stroke-linejoin="round"/>
<path d="M279.369 432.837H240.993C235.529 432.837 230.579 429.667 228.37 424.751L214.671 394.279C210.636 385.303 217.317 375.209 227.294 375.209H279.366" stroke="white" stroke-width="4" stroke-miterlimit="10" stroke-linecap="round" stroke-linejoin="round"/>
<path d="M170.921 377.32C170.921 391.339 151.61 394.419 127.79 394.419C103.97 394.419 85.8558 387.147 84.6594 373.178C82.9182 352.848 91.2733 343.651 115.094 343.651C138.915 343.651 170.921 363.301 170.921 377.32Z" stroke="white" stroke-width="4" stroke-miterlimit="10" stroke-linecap="round" stroke-linejoin="round"/>
<path d="M147.584 222.907H279.368" stroke="white" stroke-width="4" stroke-miterlimit="10" stroke-linecap="round" stroke-linejoin="round"/>
</g>
<path d="M459.197 402.651V370.374C459.197 359.405 468.109 350.512 479.102 350.512C490.095 350.512 499.007 359.405 499.007 370.374V402.651" stroke="white" stroke-width="4" stroke-miterlimit="10" stroke-linecap="round" stroke-linejoin="round"/>
<path d="M499.008 402.651V370.374C499.008 359.405 508.227 350.512 519.599 350.512C530.972 350.512 540.19 359.405 540.19 370.374V402.651" stroke="white" stroke-width="4" stroke-miterlimit="10" stroke-linecap="round" stroke-linejoin="round"/>
<path d="M539.504 402.981V383.262C539.504 372.059 548.569 362.978 559.752 362.978C570.935 362.978 580 372.059 580 383.262L580 473.677C580 510.229 550.419 539.86 513.93 539.86H484.085C447.596 539.86 418.016 510.229 418.016 473.677V291.213C418.016 280.011 427.081 270.93 438.264 270.93C449.447 270.93 458.512 280.011 458.512 291.213V402.981" stroke="white" stroke-width="4" stroke-miterlimit="10" stroke-linecap="round" stroke-linejoin="round"/>
</svg>
